# Blender 3.6.17
# www.blender.org
mtllib green3.mtl
o green3
v -4.555821 0.000000 3.838002
v -4.555821 0.000000 -4.599033
v 3.881213 0.000000 4.787020
v 3.881213 0.000000 -4.599033
v -0.337304 0.000000 -4.599033
v -0.337305 0.000000 4.155455
v 2.418084 0.000000 -4.599033
v 2.418084 0.000000 5.157887
v 1.040390 0.000000 5.157887
v 1.040390 0.000000 -4.599033
v -2.446563 0.000000 4.497945
v -2.446563 0.000000 -4.599033
v -4.555821 -0.260000 3.838002
v -4.555821 -0.260000 -4.599033
v 3.881213 -0.260000 4.787020
v 3.881213 -0.260000 -4.599033
v -0.337304 -0.260000 -4.599033
v -0.337305 -0.260000 4.155455
v 2.418084 -0.260000 -4.599033
v 2.418084 -0.260000 5.157887
v 1.040390 -0.260000 5.157887
v 1.040390 -0.260000 -4.599033
v -2.446563 -0.260000 4.497945
v -2.446563 -0.260000 -4.599033
vn -0.0000 1.0000 -0.0000
vn -0.0000 -1.0000 -0.0000
vn -1.0000 -0.0000 -0.0000
vn -0.0000 -0.0000 -1.0000
vn 1.0000 -0.0000 -0.0000
vn -0.2986 -0.0000 0.9544
vn -0.5884 -0.0000 0.8086
vn 0.2457 -0.0000 0.9693
vn -0.0000 -0.0000 1.0000
vn 0.1603 -0.0000 0.9871
vt 0.812500 0.500000
vt 0.875000 0.500000
vt 0.875000 0.750000
vt 0.812500 0.750000
vt 0.709177 0.500000
vt 0.750000 0.500000
vt 0.750000 0.750000
vt 0.709177 0.750000
vt 0.625000 0.500000
vt 0.668354 0.500000
vt 0.668354 0.750000
vt 0.625000 0.750000
s 0
usemtl Green
f 12/1/1 2/2/1 1/3/1 11/4/1
f 10/5/1 5/6/1 6/7/1 9/8/1
f 4/9/1 7/10/1 8/11/1 3/12/1
f 7/10/1 10/5/1 9/8/1 8/11/1
f 5/6/1 12/1/1 11/4/1 6/7/1
f 24/1/2 23/4/2 13/3/2 14/2/2
f 22/5/2 21/8/2 18/7/2 17/6/2
f 16/9/2 15/12/2 20/11/2 19/10/2
f 19/10/2 20/11/2 21/8/2 22/5/2
f 17/6/2 18/7/2 23/4/2 24/1/2
f 1/3/3 2/2/3 14/2/3 13/3/3
f 7/10/4 4/9/4 16/9/4 19/10/4
f 4/9/5 3/12/5 15/12/5 16/9/5
f 11/4/6 1/3/6 13/3/6 23/4/6
f 12/1/4 5/6/4 17/6/4 24/1/4
f 9/8/7 6/7/7 18/7/7 21/8/7
f 10/5/4 7/10/4 19/10/4 22/5/4
f 3/12/8 8/11/8 20/11/8 15/12/8
f 8/11/9 9/8/9 21/8/9 20/11/9
f 5/6/4 10/5/4 22/5/4 17/6/4
f 6/7/10 11/4/10 23/4/10 18/7/10
f 2/2/4 12/1/4 24/1/4 14/2/4
