# Blender 3.6.17
# www.blender.org
mtllib green8.mtl
o plilla0.010
v 0.326505 -0.023016 0.223437
v -0.429164 -0.023016 0.223438
v 0.326505 0.041428 -0.259855
v 0.326505 0.009206 -0.018209
v -0.051329 -0.023016 0.223438
v -0.566394 -0.023016 0.082322
v 0.067371 0.041428 -0.474571
v 0.330131 -0.152434 0.211699
v -0.425538 -0.152434 0.211700
v 0.330131 -0.087990 -0.271593
v 0.330131 -0.120212 -0.029947
v -0.047704 -0.152434 0.211700
v -0.562769 -0.152434 0.070584
v 0.070996 -0.087990 -0.486309
vn -0.0279 0.9955 0.0903
vn 0.0279 -0.9955 -0.0903
vn 0.9996 0.0277 0.0037
vn -0.0000 -0.0903 0.9959
vn 0.6356 0.0874 -0.7671
vn -0.7144 -0.0830 0.6948
vn -0.6621 0.0493 -0.7478
vt 0.726245 0.669136
vt 0.812393 0.571096
vt 0.834222 0.592325
vt 0.834222 0.650774
vt 0.834222 0.709222
vt 0.796841 0.709222
vt 0.759460 0.709222
s 0
usemtl Green
f 7/1/1 6/2/1 2/3/1 5/4/1 1/5/1 4/6/1 3/7/1
f 14/1/2 10/7/2 11/6/2 8/5/2 12/4/2 9/3/2 13/2/2
f 4/6/3 1/5/3 8/5/3 11/6/3
f 5/4/4 2/3/4 9/3/4 12/4/4
f 7/1/5 3/7/5 10/7/5 14/1/5
f 3/7/3 4/6/3 11/6/3 10/7/3
f 1/5/4 5/4/4 12/4/4 8/5/4
f 2/3/6 6/2/6 13/2/6 9/3/6
f 6/2/7 7/1/7 14/1/7 13/2/7
