# Blender 3.6.17
# www.blender.org
mtllib green10.mtl
o plilla0.012
v 0.540545 -0.085925 -1.180802
v -1.180801 -0.085925 0.540545
v 0.540545 -0.085925 0.540545
v 0.259776 0.085926 -0.900032
v -0.900032 0.085926 0.259776
v 0.259776 0.085926 0.259776
v -0.030176 0.085926 0.259776
v -0.320128 0.085926 0.259776
v -0.610080 0.085926 0.259776
v 0.110209 -0.085925 0.540545
v -0.320128 -0.085925 0.540545
v -0.750465 -0.085925 0.540545
v 0.259776 0.085926 -0.610080
v 0.259776 0.085926 -0.320128
v 0.259776 0.085926 -0.030176
v 0.540545 -0.085925 -0.750465
v 0.540545 -0.085925 -0.320128
v 0.540545 -0.085925 0.110208
v 0.420474 -0.282096 -1.180802
v -1.180801 -0.282096 0.420475
v 0.471038 -0.313045 0.471038
v 0.139705 -0.110245 -0.900032
v -0.900032 -0.110245 0.139705
v 0.190269 -0.141194 0.190269
v -0.030176 -0.110245 0.139705
v -0.320128 -0.110245 0.139705
v -0.610080 -0.110245 0.139705
v 0.110209 -0.282096 0.420474
v -0.320128 -0.282096 0.420474
v -0.750465 -0.282096 0.420475
v 0.139705 -0.110245 -0.610080
v 0.139705 -0.110245 -0.320128
v 0.139705 -0.110245 -0.030176
v 0.420474 -0.282096 -0.750465
v 0.420474 -0.282096 -0.320128
v 0.420474 -0.282096 0.110208
vn 0.5220 0.8529 -0.0000
vn -0.0000 0.8529 0.5220
vn -0.5220 -0.8529 -0.0000
vn -0.0000 -0.8529 -0.5220
vn -0.5535 0.3388 -0.7608
vn -0.7608 0.3388 -0.5535
vn -0.9135 0.3904 0.1142
vn -0.0000 0.5220 -0.8529
vn 0.9146 -0.3975 -0.0740
vn -0.0000 -0.5220 0.8529
vn 0.1142 0.3904 -0.9135
vn -0.8529 0.5220 -0.0000
vn -0.0740 -0.3975 0.9146
vn -0.9198 -0.2048 0.3346
vn 1.0000 -0.0000 -0.0000
vn 0.8529 -0.5220 -0.0000
vn -0.0000 -0.0000 1.0000
vn 0.3346 -0.2048 -0.9198
vt 0.792111 0.709222
vt 0.834222 0.709222
vt 0.875000 0.750000
vt 0.812500 0.750000
vt 0.834222 0.582889
vt 0.834222 0.540778
vt 0.875000 0.500000
vt 0.875000 0.562500
vt 0.834222 0.667111
vt 0.875000 0.687500
vt 0.665778 0.709222
vt 0.707889 0.709222
vt 0.687500 0.750000
vt 0.625000 0.750000
vt 0.834222 0.625000
vt 0.875000 0.625000
vt 0.750000 0.709222
vt 0.750000 0.750000
s 0
usemtl Green
f 15/1/1 6/2/1 3/3/1 18/4/1
f 9/5/2 5/6/2 2/7/2 12/8/2
f 6/2/2 7/9/2 10/10/2 3/3/2
f 4/11/1 13/12/1 16/13/1 1/14/1
f 8/15/2 9/5/2 12/8/2 11/16/2
f 13/12/1 14/17/1 17/18/1 16/13/1
f 33/1/3 36/4/3 21/3/3 24/2/3
f 27/5/4 30/8/4 20/7/4 23/6/4
f 24/2/4 21/3/4 28/10/4 25/9/4
f 22/11/3 19/14/3 34/13/3 31/12/3
f 26/15/4 29/16/4 30/8/4 27/5/4
f 31/12/3 34/13/3 35/18/3 32/17/3
f 4/11/5 1/14/5 19/14/5 22/11/5
f 2/7/6 5/6/6 23/6/6 20/7/6
f 6/2/7 15/1/7 33/1/7 24/2/7
f 5/6/8 9/5/8 27/5/8 23/6/8
f 18/4/9 3/3/9 21/3/9 36/4/9
f 12/8/10 2/7/10 20/7/10 30/8/10
f 7/9/11 6/2/11 24/2/11 25/9/11
f 14/17/12 13/12/12 31/12/12 32/17/12
f 9/5/8 8/15/8 26/15/8 27/5/8
f 3/3/13 10/10/13 28/10/13 21/3/13
f 13/12/12 4/11/12 22/11/12 31/12/12
f 11/16/10 12/8/10 30/8/10 29/16/10
f 10/10/14 7/9/14 25/9/14 28/10/14
f 8/15/15 11/16/15 29/16/15 26/15/15
f 1/14/16 16/13/16 34/13/16 19/14/16
f 16/13/16 17/18/16 35/18/16 34/13/16
f 17/18/17 14/17/17 32/17/17 35/18/17
f 15/1/18 18/4/18 36/4/18 33/1/18
