# Blender 3.6.17
# www.blender.org
mtllib green2.mtl
o plate2.009
v -0.526042 0.000000 1.253312
v 0.657487 0.000000 1.253312
v 0.394596 0.000000 -1.253312
v -0.526042 0.000000 -1.253312
v 0.394596 0.000000 -0.417771
v 0.657487 0.000000 0.417771
v -0.526042 0.000000 0.417770
v -0.526042 0.000000 -0.417771
v -0.526042 -0.090000 1.253312
v 0.657487 -0.090000 1.253312
v 0.394596 -0.090000 -1.253312
v -0.526042 -0.090000 -1.253312
v 0.394596 -0.090000 -0.417771
v 0.657487 -0.090000 0.417771
v -0.526042 -0.090000 0.417770
v -0.526042 -0.090000 -0.417771
vn -0.0000 1.0000 -0.0000
vn -0.0000 -1.0000 -0.0000
vn 1.0000 -0.0000 -0.0000
vn -0.0000 -0.0000 1.0000
vn -1.0000 -0.0000 -0.0000
vn -0.0000 -0.0000 -1.0000
vn 0.9539 -0.0000 -0.3001
vt 0.625000 0.712261
vt 0.875000 0.712261
vt 0.875000 0.750000
vt 0.625000 0.750000
vt 0.625000 0.636783
vt 0.875000 0.636783
vt 0.875000 0.674522
vt 0.625000 0.674522
s 0
usemtl Green
f 6/1/1 7/2/1 1/3/1 2/4/1
f 3/5/1 4/6/1 8/7/1 5/8/1
f 5/8/1 8/7/1 7/2/1 6/1/1
f 14/1/2 10/4/2 9/3/2 15/2/2
f 11/5/2 13/8/2 16/7/2 12/6/2
f 13/8/2 14/1/2 15/2/2 16/7/2
f 6/1/3 2/4/3 10/4/3 14/1/3
f 2/4/4 1/3/4 9/3/4 10/4/4
f 8/7/5 4/6/5 12/6/5 16/7/5
f 4/6/6 3/5/6 11/5/6 12/6/6
f 3/5/3 5/8/3 13/8/3 11/5/3
f 5/8/7 6/1/7 14/1/7 13/8/7
f 1/3/5 7/2/5 15/2/5 9/3/5
f 7/2/5 8/7/5 16/7/5 15/2/5
