# Blender 3.6.17
# www.blender.org
mtllib green4.mtl
o Icosphere.005
v 0.237981 0.452993 -0.094887
v -2.037687 0.197432 -0.002070
v -1.949726 0.198965 0.541658
v 1.048038 0.205665 0.277135
v 1.941747 0.205631 -0.640383
v 0.071422 0.200665 -0.799506
v -3.462530 -0.210279 0.259179
v 0.929446 -0.197675 1.021792
v 4.145436 -0.191102 0.484352
v 0.898947 -0.202134 -0.787539
v -2.901766 -0.211274 -0.718346
v 1.078693 -0.448887 0.458615
vn -0.1110 0.9937 0.0152
vn -0.1186 0.9434 -0.3098
vn 0.0412 0.8711 0.4893
vn 0.2024 0.9593 0.1971
vn 0.0267 0.9391 -0.3426
vn -0.1377 0.9226 -0.3604
vn -0.2680 0.9626 0.0406
vn 0.0405 0.8759 0.4809
vn 0.1186 0.9862 0.1155
vn 0.0835 0.1423 -0.9863
vn -0.3002 0.9380 -0.1731
vn -0.1707 -0.0481 0.9841
vn 0.0792 0.8712 0.4845
vn 0.3141 -0.5155 -0.7972
vn -0.0180 -0.0666 -0.9976
vn -0.0512 -0.9983 -0.0284
vn -0.0654 -0.9176 0.3920
vn 0.0724 -0.9036 0.4222
vn 0.0837 -0.9751 -0.2052
vn -0.0012 -0.9810 -0.1941
vt 0.181819 0.000000
vt 0.272728 0.157461
vt 0.090910 0.157461
vt 0.363637 0.000000
vt 0.454546 0.157461
vt 0.909091 0.000000
vt 1.000000 0.157461
vt 0.818182 0.157461
vt 0.727273 0.000000
vt 0.636364 0.157461
vt 0.545455 0.000000
vt 0.363637 0.314921
vt 0.181819 0.314921
vt 0.909091 0.314921
vt 0.727273 0.314921
vt 0.545455 0.314921
vt 0.000000 0.314921
vt 0.272728 0.472382
vt 0.090910 0.472382
vt 0.818182 0.472382
vt 0.636364 0.472382
vt 0.454546 0.472382
s 0
usemtl Green
f 1/1/1 2/2/1 3/3/1
f 2/2/2 1/4/2 6/5/2
f 1/6/3 3/7/3 4/8/3
f 1/9/4 4/8/4 5/10/4
f 1/11/5 5/10/5 6/5/5
f 2/2/6 6/5/6 11/12/6
f 3/3/7 2/2/7 7/13/7
f 4/8/8 3/7/8 8/14/8
f 5/10/9 4/8/9 9/15/9
f 6/5/10 5/10/10 10/16/10
f 2/2/11 11/12/11 7/13/11
f 3/3/12 7/13/12 8/17/12
f 4/8/13 8/14/13 9/15/13
f 5/10/14 9/15/14 10/16/14
f 6/5/15 10/16/15 11/12/15
f 7/13/16 11/12/16 12/18/16
f 8/17/17 7/13/17 12/19/17
f 9/15/18 8/14/18 12/20/18
f 10/16/19 9/15/19 12/21/19
f 11/12/20 10/16/20 12/22/20
