# Blender 3.6.17
# www.blender.org
mtllib green9.mtl
o plilla0.011
v -0.685394 -0.072927 -0.569672
v -0.685394 -0.072927 0.640710
v 0.690284 -0.072927 0.640710
v 0.690284 -0.072927 -0.569672
v -0.477384 0.063221 0.471512
v 0.498863 0.052363 -0.413968
v -0.480456 0.061210 -0.402973
v 0.467866 0.072651 0.459793
v 0.145496 0.096389 0.430293
v -0.219962 0.045893 0.493046
v 0.231725 -0.072927 0.640710
v -0.226835 -0.072927 0.640710
v 0.431599 0.096389 -0.161868
v 0.496809 0.053707 0.035519
v 0.431599 0.096389 0.232906
v 0.690284 -0.072927 -0.267076
v 0.690284 -0.072927 0.035519
v 0.690284 -0.072927 0.338115
v -0.240410 0.059372 -0.405257
v 0.002445 0.096389 -0.359255
v 0.250617 0.052411 -0.413908
v -0.341475 -0.072927 -0.569672
v 0.002445 -0.072927 -0.569672
v 0.346364 -0.072927 -0.569672
v -0.426710 0.096389 0.232906
v -0.490340 0.054741 0.035519
v -0.426710 0.096389 -0.161868
v -0.685394 -0.072927 0.338115
v -0.685394 -0.072927 0.035519
v -0.685394 -0.072927 -0.267076
v -0.652535 -0.123130 -0.569672
v -0.665645 -0.126393 0.621966
v 0.670536 -0.126393 0.621966
v 0.670535 -0.126393 -0.550927
v -0.458572 0.009815 0.451665
v 0.480253 -0.001026 -0.393886
v -0.447597 0.011008 -0.402973
v 0.450143 0.019353 0.438693
v 0.145496 0.049643 0.392679
v -0.219962 -0.000852 0.455432
v 0.231725 -0.119673 0.603096
v -0.226835 -0.119673 0.603096
v 0.398741 0.046186 -0.161868
v 0.463950 0.003505 0.035519
v 0.398741 0.046186 0.232906
v 0.657425 -0.123130 -0.267076
v 0.657425 -0.123130 0.035519
v 0.657425 -0.123130 0.338115
v -0.240410 0.012627 -0.367642
v 0.002445 0.049643 -0.321640
v 0.250617 0.005665 -0.376294
v -0.341475 -0.119673 -0.532057
v 0.002445 -0.119672 -0.532057
v 0.346364 -0.119672 -0.532057
v -0.393851 0.046186 0.232906
v -0.457481 0.004538 0.035519
v -0.393851 0.046186 -0.161868
v -0.652535 -0.123130 0.338115
v -0.652535 -0.123130 0.035519
v -0.652535 -0.123130 -0.267076
vn -0.0000 0.7791 -0.6269
vn -0.5476 0.8367 -0.0000
vn -0.0000 0.7791 0.6269
vn 0.5476 0.8367 -0.0000
vn 0.0234 -0.7696 0.6382
vn 0.5476 -0.8367 -0.0000
vn -0.0186 -0.7738 -0.6332
vn -0.5588 -0.8290 0.0227
vn 0.0167 -0.7743 -0.6326
vn -0.5571 -0.8302 -0.0210
vn -0.5476 -0.8367 -0.0000
vn -0.0000 -0.7791 0.6269
vn 0.5569 -0.8303 0.0208
vn 0.4708 0.3081 -0.8267
vn 0.0391 0.4934 0.8689
vn 0.8085 0.5292 -0.2574
vn 0.0724 0.5065 -0.8592
vn -0.8925 0.3900 0.2264
vn -0.0296 -0.4855 -0.8737
vn 0.8932 -0.4492 -0.0225
vn -0.8367 -0.5476 -0.0000
vn 0.0220 -0.4868 0.8733
vn 0.1456 0.4815 -0.8643
vn -0.0220 -0.4868 0.8732
vn -0.9526 -0.1907 0.2370
vn 0.9993 -0.0227 0.0282
vn -0.8679 0.3661 -0.3357
vn -0.7782 0.5094 -0.3672
vn 0.8932 -0.4492 0.0225
vn 0.8367 -0.5476 -0.0000
vn 0.2695 -0.1764 0.9467
vn -0.0000 -0.0000 -1.0000
vn -0.2362 0.6092 0.7570
vn 0.2720 0.6033 0.7497
vn -0.0000 -0.6269 -0.7791
vn -0.9019 0.2708 0.3365
vn 0.8794 0.3848 0.2804
vn 0.7808 0.5110 -0.3595
vn 0.7808 0.5110 0.3595
vn -0.8932 -0.4492 -0.0225
vt 0.797407 0.719814
vt 0.844826 0.719826
vt 0.875000 0.750000
vt 0.812500 0.750000
vt 0.665778 0.667111
vt 0.657305 0.717695
vt 0.625000 0.750000
vt 0.625000 0.687500
vt 0.707345 0.528616
vt 0.657790 0.532790
vt 0.625000 0.500000
vt 0.708333 0.500000
vt 0.834222 0.582889
vt 0.839939 0.535061
vt 0.875000 0.500000
vt 0.875000 0.562500
vt 0.778074 0.540778
vt 0.791667 0.500000
vt 0.834222 0.667111
vt 0.875000 0.687500
vt 0.844502 0.625000
vt 0.875000 0.625000
vt 0.703431 0.718137
vt 0.750000 0.709222
vt 0.750000 0.750000
vt 0.687500 0.750000
vt 0.665778 0.582889
vt 0.625000 0.562500
vt 0.655747 0.625000
vt 0.625000 0.625000
s 0
usemtl Green
f 21/1/1 6/2/1 4/3/1 24/4/1
f 27/5/2 7/6/2 1/7/2 30/8/2
f 10/9/3 5/10/3 2/11/3 12/12/3
f 15/13/4 8/14/4 3/15/4 18/16/4
f 8/14/3 9/17/3 11/18/3 3/15/3
f 6/2/4 13/19/4 16/20/4 4/3/4
f 14/21/4 15/13/4 18/16/4 17/22/4
f 19/23/1 20/24/1 23/25/1 22/26/1
f 20/24/1 21/1/1 24/4/1 23/25/1
f 5/10/2 25/27/2 28/28/2 2/11/2
f 25/27/2 26/29/2 29/30/2 28/28/2
f 26/29/2 27/5/2 30/8/2 29/30/2
f 51/1/5 54/4/5 34/3/5 36/2/5
f 57/5/6 60/8/6 31/7/6 37/6/6
f 40/9/7 42/12/7 32/11/7 35/10/7
f 45/13/8 48/16/8 33/15/8 38/14/8
f 38/14/9 33/15/9 41/18/9 39/17/9
f 36/2/10 34/3/10 46/20/10 43/19/10
f 44/21/11 47/22/11 48/16/11 45/13/11
f 49/23/12 52/26/12 53/25/12 50/24/12
f 50/24/12 53/25/12 54/4/12 51/1/12
f 35/10/13 32/11/13 58/28/13 55/27/13
f 55/27/6 58/28/6 59/30/6 56/29/6
f 56/29/6 59/30/6 60/8/6 57/5/6
f 1/7/14 7/6/14 37/6/14 31/7/14
f 6/2/15 21/1/15 51/1/15 36/2/15
f 7/6/16 27/5/16 57/5/16 37/6/16
f 5/10/17 10/9/17 40/9/17 35/10/17
f 8/14/18 15/13/18 45/13/18 38/14/18
f 24/4/19 4/3/19 34/3/19 54/4/19
f 18/16/20 3/15/20 33/15/20 48/16/20
f 30/8/21 1/7/21 31/7/21 60/8/21
f 12/12/22 2/11/22 32/11/22 42/12/22
f 9/17/23 8/14/23 38/14/23 39/17/23
f 3/15/24 11/18/24 41/18/24 33/15/24
f 11/18/25 9/17/25 39/17/25 41/18/25
f 10/9/26 12/12/26 42/12/26 40/9/26
f 13/19/27 6/2/27 36/2/27 43/19/27
f 15/13/28 14/21/28 44/21/28 45/13/28
f 4/3/29 16/20/29 46/20/29 34/3/29
f 17/22/30 18/16/30 48/16/30 47/22/30
f 16/20/31 13/19/31 43/19/31 46/20/31
f 14/21/32 17/22/32 47/22/32 44/21/32
f 20/24/33 19/23/33 49/23/33 50/24/33
f 21/1/34 20/24/34 50/24/34 51/1/34
f 22/26/35 23/25/35 53/25/35 52/26/35
f 23/25/35 24/4/35 54/4/35 53/25/35
f 19/23/36 22/26/36 52/26/36 49/23/36
f 25/27/37 5/10/37 35/10/37 55/27/37
f 26/29/38 25/27/38 55/27/38 56/29/38
f 27/5/39 26/29/39 56/29/39 57/5/39
f 2/11/40 28/28/40 58/28/40 32/11/40
f 28/28/21 29/30/21 59/30/21 58/28/21
f 29/30/21 30/8/21 60/8/21 59/30/21
