# Blender 3.6.17
# www.blender.org
mtllib green1.mtl
o Icosphere
v 0.241517 -3.574723 -0.318393
v 2.767387 -1.710361 2.010603
v -1.119767 -1.279454 3.819554
v -1.900798 0.499542 1.118957
v -0.234907 -1.239226 -4.680119
v 2.812656 -1.689659 -2.093913
v 2.083934 1.040206 4.752200
v -1.050675 1.970211 3.208175
v -2.271235 2.120157 -2.090996
v 0.989026 1.562864 -3.129448
v 3.349195 1.575009 0.130362
v 0.241029 2.890583 0.904536
v -0.607410 -2.958269 2.148003
v 1.628402 -3.243243 1.186852
v 0.999879 -1.987098 3.127612
v 3.253245 -2.010641 0.000003
v 1.799515 -3.167557 -1.493977
v -1.387820 -1.980193 -0.196950
v -2.845188 -0.542694 4.512925
v 0.096668 -2.809599 -3.129124
v -1.593858 -0.729143 -3.092178
v 1.420434 -1.820822 -3.857993
v 3.636492 -0.001446 1.183193
v 3.635222 -0.003851 -1.178086
v -0.016844 0.171533 4.119309
v 2.247841 -0.000198 3.094223
v -1.720543 1.458337 2.708143
v -2.176561 0.384224 4.760881
v -1.678452 0.496175 -3.939031
v -2.502777 1.385031 -0.526645
v 2.288102 0.015152 -3.167969
v 0.611329 -0.074229 -5.272982
v 2.561265 1.806909 2.073394
v -0.372573 1.127313 4.207359
v -1.789248 2.443321 1.015663
v -0.055431 2.339197 -4.883649
v 2.526720 1.811430 -1.720316
v 1.261472 1.776770 2.899813
v 2.507610 3.245867 0.165239
v -0.237105 2.489549 1.995767
v -0.310952 3.015635 -2.157119
v 0.702016 3.174078 -1.685716
vn -0.0228 -0.9717 0.2350
vn 0.6988 -0.6632 0.2679
vn -0.7004 -0.7109 -0.0634
vn -0.6969 -0.7003 -0.1547
vn 0.0518 -0.9629 -0.2648
vn 0.9050 -0.3305 0.2680
vn 0.1896 -0.3348 0.9230
vn -0.9104 0.3917 -0.1330
vn -0.7543 -0.4077 -0.5146
vn 0.7822 -0.1416 -0.6068
vn 0.8025 -0.1258 0.5832
vn 0.2323 -0.3630 0.9024
vn -0.9492 -0.2099 0.2343
vn -0.5139 -0.0621 -0.8556
vn 0.8236 -0.0985 -0.5585
vn 0.1682 0.9394 0.2988
vn 0.2514 0.8171 0.5187
vn -0.4162 0.9088 -0.0300
vn 0.8462 0.4312 -0.3130
vn 0.8435 0.4315 -0.3197
vn -0.1270 0.9882 0.0856
vn 0.5050 0.6894 -0.5193
vn 0.4631 0.6358 -0.6175
vn -0.1876 0.9795 0.0738
vn -0.0380 0.9690 -0.2440
vn -0.4088 0.8761 -0.2557
vn -0.4637 0.8779 0.1195
vn -0.1095 0.9859 0.1268
vn -0.1987 0.9421 0.2702
vn 0.1798 0.8952 0.4078
vn 0.0849 0.8460 0.5263
vn -0.0538 0.9195 0.3895
vn 0.0190 0.8771 0.4799
vn 0.3388 0.7558 0.5604
vn 0.8555 0.4247 0.2962
vn 0.8476 0.4211 -0.3229
vn 0.7855 0.3217 -0.5287
vn 0.5499 0.4786 -0.6845
vn 0.8718 0.3030 -0.3850
vn -0.5033 0.0003 -0.8641
vn -0.7426 0.3667 -0.5604
vn -0.8808 0.4652 0.0883
vn -0.9262 0.3082 0.2170
vn -0.7224 0.5845 0.3695
vn -0.0924 0.7293 0.6779
vn 0.2864 0.0183 0.9579
vn -0.2191 -0.1701 0.9608
vn 0.9848 -0.0855 0.1510
vn 0.7946 0.1883 0.5772
vn 0.8762 0.3677 0.3114
vn 0.6410 0.5513 -0.5340
vn 0.7776 -0.1369 -0.6136
vn 0.2038 -0.5576 -0.8047
vn -0.9714 -0.1244 -0.2022
vn -0.9641 -0.1928 -0.1827
vn -0.8818 -0.4661 0.0717
vn -0.6879 0.6945 0.2106
vn -0.8199 0.5615 0.1117
vn 0.1983 -0.3842 0.9017
vn 0.1798 -0.8251 0.5356
vn 0.3871 -0.2281 0.8934
vn 0.5409 -0.3267 0.7750
vn 0.9839 0.1788 -0.0007
vn 0.9823 -0.1872 -0.0003
vn 0.9174 -0.3164 -0.2415
vn 0.6367 -0.6217 -0.4562
vn 0.3188 -0.8007 -0.5072
vn 0.1162 -0.6854 -0.7188
vn -0.7069 -0.5669 -0.4229
vn -0.7604 -0.6141 -0.2113
vn -0.9807 -0.1952 -0.0145
vn -0.9583 -0.0488 -0.2816
vn -0.7470 -0.6642 -0.0284
vn -0.0189 -0.7083 0.7056
vn 0.7476 -0.6146 -0.2515
vn 0.6120 -0.7907 0.0167
vn 0.2445 -0.9696 -0.0118
vn -0.0047 -0.7063 0.7079
vn 0.1418 -0.8094 0.5698
vn 0.4714 -0.6629 0.5817
vt 0.181819 0.000000
vt 0.227273 0.078731
vt 0.136365 0.078731
vt 0.272728 0.157461
vt 0.318182 0.078731
vt 0.363637 0.157461
vt 0.909091 0.000000
vt 0.954545 0.078731
vt 0.863636 0.078731
vt 0.727273 0.000000
vt 0.772727 0.078731
vt 0.681818 0.078731
vt 0.545455 0.000000
vt 0.590909 0.078731
vt 0.500000 0.078731
vt 0.318182 0.236191
vt 0.090910 0.157461
vt 0.181819 0.157461
vt 0.136365 0.236191
vt 0.818182 0.157461
vt 0.909091 0.157461
vt 0.863636 0.236191
vt 0.636364 0.157461
vt 0.727273 0.157461
vt 0.681818 0.236191
vt 0.454546 0.157461
vt 0.545455 0.157461
vt 0.500000 0.236191
vt 0.227273 0.236191
vt 0.045455 0.236191
vt 0.772727 0.236191
vt 0.590909 0.236191
vt 0.409092 0.236191
vt 0.181819 0.314921
vt 0.272728 0.314921
vt 0.227273 0.393651
vt 0.000000 0.314921
vt 0.090910 0.314921
vt 0.045455 0.393651
vt 0.727273 0.314921
vt 0.818182 0.314921
vt 0.772727 0.393651
vt 0.545455 0.314921
vt 0.636364 0.314921
vt 0.590909 0.393651
vt 0.363637 0.314921
vt 0.454546 0.314921
vt 0.409092 0.393651
vt 0.500000 0.393651
vt 0.454546 0.472382
vt 0.681818 0.393651
vt 0.636364 0.472382
vt 0.863636 0.393651
vt 0.818182 0.472382
vt 0.909091 0.314921
vt 0.136365 0.393651
vt 0.090910 0.472382
vt 0.318182 0.393651
vt 0.272728 0.472382
vt 0.954545 0.236191
vt 1.000000 0.157461
vt 0.409092 0.078731
vt 0.363637 0.000000
s 0
usemtl Green
f 1/1/1 14/2/1 13/3/1
f 2/4/2 14/5/2 16/6/2
f 1/7/3 13/8/3 18/9/3
f 1/10/4 18/11/4 20/12/4
f 1/13/5 20/14/5 17/15/5
f 2/4/6 16/6/6 23/16/6
f 3/17/7 15/18/7 25/19/7
f 4/20/8 19/21/8 27/22/8
f 5/23/9 21/24/9 29/25/9
f 6/26/10 22/27/10 31/28/10
f 2/4/11 23/16/11 26/29/11
f 3/17/12 25/19/12 28/30/12
f 4/20/13 27/22/13 30/31/13
f 5/23/14 29/25/14 32/32/14
f 6/26/15 31/28/15 24/33/15
f 7/34/16 33/35/16 38/36/16
f 8/37/17 34/38/17 40/39/17
f 9/40/18 35/41/18 41/42/18
f 10/43/19 36/44/19 42/45/19
f 11/46/20 37/47/20 39/48/20
f 39/48/21 42/49/21 12/50/21
f 39/48/22 37/47/22 42/49/22
f 37/47/23 10/43/23 42/49/23
f 42/45/24 41/51/24 12/52/24
f 42/45/25 36/44/25 41/51/25
f 36/44/26 9/40/26 41/51/26
f 41/42/27 40/53/27 12/54/27
f 41/42/28 35/41/28 40/53/28
f 35/41/29 8/55/29 40/53/29
f 40/39/30 38/56/30 12/57/30
f 40/39/31 34/38/31 38/56/31
f 34/38/32 7/34/32 38/56/32
f 38/36/33 39/58/33 12/59/33
f 38/36/34 33/35/34 39/58/34
f 33/35/35 11/46/35 39/58/35
f 24/33/36 37/47/36 11/46/36
f 24/33/37 31/28/37 37/47/37
f 31/28/38 10/43/38 37/47/38
f 32/32/39 36/44/39 10/43/39
f 32/32/40 29/25/40 36/44/40
f 29/25/41 9/40/41 36/44/41
f 30/31/42 35/41/42 9/40/42
f 30/31/43 27/22/43 35/41/43
f 27/22/44 8/55/44 35/41/44
f 28/30/45 34/38/45 8/37/45
f 28/30/46 25/19/46 34/38/46
f 25/19/47 7/34/47 34/38/47
f 26/29/48 33/35/48 7/34/48
f 26/29/49 23/16/49 33/35/49
f 23/16/50 11/46/50 33/35/50
f 31/28/51 32/32/51 10/43/51
f 31/28/52 22/27/52 32/32/52
f 22/27/53 5/23/53 32/32/53
f 29/25/54 30/31/54 9/40/54
f 29/25/55 21/24/55 30/31/55
f 21/24/56 4/20/56 30/31/56
f 27/22/57 28/60/57 8/55/57
f 27/22/58 19/21/58 28/60/58
f 19/21/59 3/61/59 28/60/59
f 25/19/60 26/29/60 7/34/60
f 25/19/61 15/18/61 26/29/61
f 15/18/62 2/4/62 26/29/62
f 23/16/63 24/33/63 11/46/63
f 23/16/64 16/6/64 24/33/64
f 16/6/65 6/26/65 24/33/65
f 17/15/66 22/27/66 6/26/66
f 17/15/67 20/14/67 22/27/67
f 20/14/68 5/23/68 22/27/68
f 20/12/69 21/24/69 5/23/69
f 20/12/70 18/11/70 21/24/70
f 18/11/71 4/20/71 21/24/71
f 18/9/72 19/21/72 4/20/72
f 18/9/73 13/8/73 19/21/73
f 13/8/74 3/61/74 19/21/74
f 16/6/75 17/62/75 6/26/75
f 16/6/76 14/5/76 17/62/76
f 14/5/77 1/63/77 17/62/77
f 13/3/78 15/18/78 3/17/78
f 13/3/79 14/2/79 15/18/79
f 14/2/80 2/4/80 15/18/80
