# Blender 3.6.17
# www.blender.org
mtllib pillar5.mtl
o plilla0.001
v -0.633854 2.039382 -0.659725
v -0.633854 2.039382 0.491799
v 0.674928 2.039382 0.491799
v 0.674927 2.039382 -0.659725
v -0.387749 2.200465 0.291614
v -0.633854 -0.018191 0.491799
v 0.674928 -0.018191 0.491799
v 0.428822 2.200465 -0.459540
v -0.387749 2.200465 -0.459540
v 0.674927 -0.018191 -0.659725
v -0.633854 -0.018191 -0.659725
v 0.428822 2.200465 0.291614
v -0.393785 4.405239 0.297166
v -0.393785 4.405239 -0.465092
v 0.434858 4.405239 0.297166
v 0.434858 4.405239 -0.465092
vn -0.0000 -0.0025 -1.0000
vn -0.0000 0.7791 -0.6269
vn -0.5476 0.8367 -0.0000
vn -0.0000 0.7791 0.6269
vn 0.5476 0.8367 -0.0000
vn -0.0000 -1.0000 -0.0000
vn 1.0000 -0.0000 -0.0000
vn -0.0000 -0.0000 -1.0000
vn -1.0000 -0.0000 -0.0000
vn -0.0000 -0.0000 1.0000
vn -1.0000 -0.0027 -0.0000
vn 1.0000 -0.0027 -0.0000
vn -0.0000 -0.0025 1.0000
vn -0.0000 1.0000 -0.0000
vt 0.834222 0.709222
vt 0.665778 0.709222
vt 0.875000 0.750000
vt 0.625000 0.750000
vt 0.665778 0.540778
vt 0.625000 0.500000
vt 0.834222 0.540778
vt 0.875000 0.500000
vt 0.125000 0.500000
vt 0.375000 0.500000
vt 0.375000 0.750000
vt 0.125000 0.750000
vt 0.375000 0.000000
vt 0.625000 0.000000
vt 0.625000 0.250000
vt 0.375000 0.250000
vt 0.625000 1.000000
vt 0.375000 1.000000
s 0
usemtl concrate_white
f 8/1/1 9/2/1 14/2/1 16/1/1
f 9/2/2 8/1/2 4/3/2 1/4/2
f 5/5/3 9/2/3 1/4/3 2/6/3
f 12/7/4 5/5/4 2/6/4 3/8/4
f 8/1/5 12/7/5 3/8/5 4/3/5
f 7/9/6 6/10/6 11/11/6 10/12/6
f 10/13/7 4/14/7 3/15/7 7/16/7
f 11/11/8 1/4/8 4/17/8 10/18/8
f 6/10/9 2/6/9 1/4/9 11/11/9
f 7/16/10 3/15/10 2/6/10 6/10/10
f 9/2/11 5/5/11 13/5/11 14/2/11
f 12/7/12 8/1/12 16/1/12 15/7/12
f 5/5/13 12/7/13 15/7/13 13/5/13
f 13/5/14 15/7/14 16/1/14 14/2/14
