# Blender 3.6.17
# www.blender.org
mtllib pillar3.mtl
o pilla3
v -0.810521 -0.192788 0.650505
v -0.583235 0.710628 0.344262
v -0.810521 -0.192788 -0.668219
v -0.583235 0.710628 -0.361976
v 0.789142 -0.192788 0.650505
v 0.561857 0.710628 0.344262
v 0.789142 -0.192788 -0.668219
v 0.561857 0.710628 -0.361976
v -0.810521 0.554111 0.650505
v -0.810521 0.554111 -0.668219
v 0.789142 0.554111 -0.668219
v 0.789142 0.554111 0.650505
v -0.583235 2.363877 -0.361976
v 0.561857 2.293306 -0.361976
v -0.146701 2.423863 0.218446
v -0.583235 2.363877 0.344262
v -0.357862 2.498248 -0.216871
v -0.357862 2.473526 0.198595
v -0.087104 2.515024 -0.242324
v 0.561857 2.111989 0.344262
v 0.049206 2.406725 -0.267768
v 0.015456 2.341326 0.265840
v 0.429840 2.358053 -0.259298
v 0.428097 2.203670 0.246646
vn -1.0000 -0.0000 -0.0000
vn -0.0000 -0.0000 -1.0000
vn 1.0000 -0.0000 -0.0000
vn -0.0000 -0.0000 1.0000
vn -0.0000 -1.0000 -0.0000
vn -0.5672 0.8236 -0.0000
vn -0.0000 0.8904 -0.4551
vn 0.5672 0.8236 -0.0000
vn -0.0000 0.8904 0.4551
vn 0.0495 0.7113 -0.7011
vn 0.1532 0.6733 0.7233
vn 0.0690 0.9884 0.1354
vn 0.5204 0.8347 0.1803
vn -0.4760 0.8792 0.0194
vn 0.2263 0.9514 0.2089
vn 0.4966 0.8363 0.2323
vt 0.375000 0.000000
vt 0.625000 0.000000
vt 0.625000 0.250000
vt 0.375000 0.250000
vt 0.625000 0.500000
vt 0.375000 0.500000
vt 0.625000 0.750000
vt 0.375000 0.750000
vt 0.625000 1.000000
vt 0.375000 1.000000
vt 0.125000 0.500000
vt 0.125000 0.750000
vt 0.849560 0.724560
vt 0.849560 0.525440
vt 0.875000 0.500000
vt 0.875000 0.750000
vt 0.650440 0.525440
vt 0.650440 0.724560
vt 0.849560 0.724560
vt 0.849560 0.525440
vt 0.810370 0.525440
vt 0.763288 0.525440
vt 0.730498 0.525440
vt 0.671056 0.525440
vt 0.671475 0.724560
vt 0.736367 0.724560
vt 0.773651 0.724560
vt 0.810370 0.724560
s 0
usemtl concrate_white
f 1/1/1 9/2/1 10/3/1 3/4/1
f 3/4/2 10/3/2 11/5/2 7/6/2
f 7/6/3 11/5/3 12/7/3 5/8/3
f 5/8/4 12/7/4 9/9/4 1/10/4
f 3/11/5 7/6/5 5/8/5 1/12/5
f 2/13/6 4/14/6 10/15/6 9/16/6
f 4/14/7 8/17/7 11/5/7 10/15/7
f 8/17/8 6/18/8 12/7/8 11/5/8
f 6/18/9 2/13/9 9/16/9 12/7/9
f 2/13/4 6/18/4 20/18/4 16/19/4
f 6/18/3 8/17/3 14/17/3 20/18/3
f 14/17/10 13/20/10 17/21/10 19/22/10 21/23/10 23/24/10
f 16/19/11 20/18/11 24/25/11 22/26/11 15/27/11 18/28/11
f 4/14/1 2/13/1 16/13/1 13/20/1
f 17/21/12 18/28/12 15/27/12 19/22/12
f 19/22/13 15/27/13 22/26/13 21/23/13
f 16/19/14 18/28/14 17/21/14 13/20/14
f 8/17/2 4/14/2 13/20/2 14/17/2
f 21/23/15 22/26/15 24/25/15 23/24/15
f 23/24/16 24/25/16 20/18/16 14/17/16
