# Blender 3.6.17
# www.blender.org
mtllib pillar4.mtl
o plilla0
v 0.725130 -0.186300 -0.892009
v 0.461529 0.699605 -0.628408
v 0.725131 -0.186300 0.724082
v 0.461529 0.699605 0.460481
v -0.890961 -0.186300 -0.892009
v -0.627360 0.699605 -0.628408
v -0.890961 -0.186300 0.724082
v -0.627359 0.699605 0.460481
v 0.725130 0.538262 -0.892009
v 0.725131 0.538262 0.724082
v -0.890961 0.538262 0.724082
v -0.890961 0.538262 -0.892009
v 0.461529 3.463174 -0.628408
v 0.461529 3.271283 0.460481
v -0.627359 3.463174 0.460481
v -0.627360 3.463174 -0.628408
v 0.461529 3.463174 0.127262
v 0.118877 3.463174 0.460481
v -0.627359 2.081389 0.460481
v -0.627360 2.081389 -0.628408
v 0.235709 2.055741 -0.424662
v 0.461529 2.081389 0.460481
v 0.461529 2.081389 -0.059822
v 0.461529 1.952543 -0.628408
v 0.461529 2.201575 -0.628408
v -0.234558 2.081389 -0.628408
v -0.627360 3.527618 0.102471
v -0.021763 3.527618 -0.628408
vn 1.0000 -0.0000 -0.0000
vn -0.0000 -0.0000 1.0000
vn -1.0000 -0.0000 -0.0000
vn -0.0000 -0.0000 -1.0000
vn -0.0000 -1.0000 -0.0000
vn 0.5220 0.8529 -0.0000
vn -0.0000 0.8529 0.5220
vn -0.5220 0.8529 -0.0000
vn -0.0000 0.8529 -0.5220
vn 0.0644 0.9961 0.0599
vn 0.1512 -0.8754 -0.4591
vn 0.4366 0.7796 0.4490
vn 0.2391 0.9470 -0.2146
vn 0.1745 0.9428 -0.2841
vn 0.4068 -0.8938 -0.1889
vn -0.1054 0.9906 -0.0873
vt 0.375000 0.000000
vt 0.625000 0.000000
vt 0.625000 0.250000
vt 0.375000 0.250000
vt 0.625000 0.500000
vt 0.375000 0.500000
vt 0.625000 0.750000
vt 0.375000 0.750000
vt 0.625000 1.000000
vt 0.375000 1.000000
vt 0.125000 0.500000
vt 0.125000 0.750000
vt 0.665778 0.709222
vt 0.665778 0.540778
vt 0.665778 0.596160
vt 0.834222 0.709222
vt 0.834222 0.540778
vt 0.875000 0.500000
vt 0.875000 0.750000
vt 0.781216 0.540778
vt 0.834222 0.592325
vt 0.759460 0.709222
vt 0.834222 0.621265
vt 0.834222 0.709222
vt 0.726542 0.709222
s 0
usemtl concrate_white
f 1/1/1 9/2/1 10/3/1 3/4/1
f 3/4/2 10/3/2 11/5/2 7/6/2
f 7/6/3 11/5/3 12/7/3 5/8/3
f 5/8/4 12/7/4 9/9/4 1/10/4
f 3/11/5 7/6/5 5/8/5 1/12/5
f 20/13/3 19/14/3 15/14/3 27/15/3 16/13/3
f 2/16/6 4/17/6 10/18/6 9/19/6
f 4/17/7 8/14/7 11/5/7 10/18/7
f 8/14/8 6/13/8 12/7/8 11/5/8
f 6/13/9 2/16/9 9/19/9 12/7/9
f 15/14/10 18/20/10 17/21/10 13/16/10 28/22/10 27/15/10
f 22/17/1 23/23/1 25/24/1 13/16/1 17/21/1 14/17/1
f 21/16/11 26/25/11 25/24/11
f 19/14/2 22/17/2 14/17/2 18/20/2 15/14/2
f 2/16/4 6/13/4 20/13/4 26/25/4 24/16/4
f 17/21/12 18/20/12 14/17/12
f 6/13/3 8/14/3 19/14/3 20/13/3
f 4/17/1 2/16/1 24/16/1 23/23/1 22/17/1
f 8/14/2 4/17/2 22/17/2 19/14/2
f 23/23/13 24/16/13 21/16/13
f 24/16/14 26/25/14 21/16/14
f 25/24/15 23/23/15 21/16/15
f 25/24/4 26/25/4 20/13/4 16/13/4 28/22/4 13/16/4
f 27/15/16 28/22/16 16/13/16
