# Blender 3.6.17
# www.blender.org
mtllib rock3.mtl
o rock3
v -1.255595 -1.986050 4.007226
v -1.033034 0.854868 3.005702
v -1.255595 -1.986050 -1.946302
v -1.255595 0.854868 -2.079839
v 1.696603 -1.986050 0.738823
v 1.696603 0.854868 0.605287
v 1.607579 -1.986050 -1.946302
v 1.607579 0.854868 -2.079839
v 0.175992 -1.986050 -1.946302
v 0.175992 0.854868 -2.079839
v 0.175992 -1.986050 0.916872
v 0.175992 0.854868 0.783336
v -1.255595 -1.986050 0.869329
v -1.255595 0.854868 0.735793
v 1.607579 -1.986050 0.218350
v 1.607579 0.854868 0.218350
v -0.024313 1.062284 0.280648
v 0.175992 -1.986050 0.614490
v -1.255595 0.854868 -1.789994
v 1.607579 -1.986050 -1.682691
v -1.255595 -1.986050 -1.656458
v 1.607579 0.854868 -1.816227
v 0.175992 0.978286 -1.816227
v 0.175992 -1.986050 -1.682691
v -1.165281 -0.650416 3.654999
v -1.255595 -0.824182 -1.946302
v 1.607579 -0.824182 -1.946302
v 1.696603 -0.650416 0.738823
v 0.175992 -0.650416 0.916872
v 0.175992 -0.824182 -1.946302
v 1.607579 -0.824182 0.218350
v -1.255595 -0.824182 0.869329
v 1.607579 -0.824182 -1.682691
v -1.255595 -0.824182 -1.656458
v 1.514181 -0.809542 1.523955
v 1.514181 -1.971410 1.523955
v 0.997557 -1.958736 2.217936
v 0.033347 -1.958736 5.664387
v 0.997557 -0.796868 2.217936
v 0.123662 -0.796868 5.312160
v 0.084976 0.529239 0.181548
v 0.084976 1.328065 0.181548
v 0.069163 0.529239 -0.617122
v 0.069163 1.328065 -0.617122
v 1.010945 0.529239 0.163214
v 1.010945 1.328065 0.163214
v 0.867832 0.529239 -0.632935
v 0.867832 1.328065 -0.632935
v 0.468498 0.529239 -0.625029
v 0.468498 1.420955 -0.625029
v 0.547960 0.529239 0.172381
v -1.489539 0.207373 0.725728
v -1.472208 1.679589 0.688071
v -2.093404 0.180128 -0.617307
v -2.076073 1.652344 -0.654964
v -0.135833 0.230253 0.172129
v -1.632750 1.672345 0.331015
v -0.750205 0.148884 -1.220612
v -0.732874 1.621100 -1.258270
v -1.421805 0.164506 -0.918959
v -1.402458 1.807916 -0.960996
v -0.710893 0.189261 0.375995
v -0.944278 1.729903 0.461859
v -0.540546 1.777240 0.213126
v -0.122696 1.424654 0.143584
v -0.334491 1.731514 -0.282313
v -1.717171 1.712733 0.163346
v 0.482597 1.417676 -0.625308
vn -1.0000 -0.0000 -0.0000
vn -0.0000 -0.0793 -0.9969
vn 0.9815 -0.0080 -0.1911
vn 0.8865 0.0796 0.4558
vn -0.0000 -1.0000 -0.0000
vn 0.3918 0.8950 0.2132
vn 0.0796 0.9762 0.2017
vn 0.1158 0.0878 0.9894
vn 0.1071 0.9941 -0.0150
vn -0.1274 0.9916 -0.0235
vn 1.0000 -0.0000 -0.0000
vn -0.9966 0.0561 0.0598
vn -0.0440 0.9751 -0.2174
vn 0.0419 0.9728 -0.2277
vn -0.1604 0.9869 0.0157
vn -0.9992 0.0381 0.0141
vn -0.0000 -0.0000 -1.0000
vn 0.0603 0.9901 0.1265
vn 0.9741 -0.0000 0.2263
vn 0.9857 -0.0000 -0.1686
vn 0.8021 -0.0000 0.5971
vn 0.9627 0.0036 0.2705
vn 0.0171 -0.9998 0.0063
vn -0.7651 0.2255 0.6032
vn 0.0021 -0.9998 0.0195
vn 0.0901 0.9953 0.0342
vn -0.9998 -0.0000 0.0198
vn -0.0198 -0.0000 -0.9998
vn 0.9842 -0.0000 -0.1769
vn 0.0198 -0.0000 0.9998
vn 0.2256 0.9734 -0.0406
vn -0.9120 0.0190 0.4097
vn -0.4100 -0.0185 -0.9119
vn 0.1487 0.9811 -0.1236
vn 0.0303 -0.9992 0.0245
vn 0.3831 0.0285 0.9233
vn 0.9161 -0.0104 -0.4008
vn -0.0118 -0.9996 0.0256
vn -0.1037 0.9929 0.0586
vn 0.6510 0.7314 0.2032
vn -0.1353 0.9456 0.2959
vn -0.0869 0.9960 0.0188
vn 0.0057 0.9936 0.1132
vn -0.2265 0.9740 0.0045
vt 0.476449 0.232511
vt 0.625000 0.232511
vt 0.625000 0.250000
vt 0.476449 0.250000
vt 0.476449 0.375000
vt 0.625000 0.375000
vt 0.625000 0.500000
vt 0.476449 0.500000
vt 0.476449 0.787583
vt 0.625000 0.787583
vt 0.625000 0.750000
vt 0.476449 0.750000
vt 0.476449 0.875000
vt 0.625000 0.875000
vt 0.625000 1.000000
vt 0.476449 1.000000
vt 0.250000 0.718875
vt 0.375000 0.787584
vt 0.375000 0.750000
vt 0.250000 0.750000
vt 0.750000 0.718875
vt 0.875000 0.750000
vt 0.750000 0.750000
vt 0.125000 0.669891
vt 0.125000 0.750000
vt 0.125000 0.517489
vt 0.250000 0.522531
vt 0.625000 0.529604
vt 0.750000 0.522531
vt 0.875000 0.517489
vt 0.875000 0.669891
vt 0.375000 0.529604
vt 0.476449 0.529604
vt 0.476449 0.000000
vt 0.625000 0.000000
vt 0.625000 0.080109
vt 0.476449 0.080109
vt 0.250000 0.500000
vt 0.375000 0.500000
vt 0.750000 0.500000
vt 0.875000 0.500000
vt 0.125000 0.500000
vt 0.375000 0.080109
vt 0.375000 0.232511
vt 0.375000 0.000000
vt 0.375000 0.250000
vt 0.375000 0.375000
vt 0.375000 0.875000
vt 0.375000 1.000000
vt 0.625000 0.379413
vt 0.745587 0.500000
vt 0.625000 0.066464
vt 0.625000 0.112542
vt 0.696784 0.750000
vt 0.625000 0.691553
vt 0.564505 0.750000
vt 0.625000 0.821784
vt 0.625000 0.908175
vt 0.625000 0.691553
vt 0.564505 0.750000
vt 0.875000 0.637458
vt 0.783175 0.750000
vt 0.875000 0.683536
s 0
usemtl Rock
f 34/1/1 19/2/1 4/3/1 26/4/1
f 30/5/2 10/6/2 8/7/2 27/8/2
f 31/9/3 16/10/3 6/11/3 28/12/3
f 29/13/4 12/14/4 2/15/4 25/16/4
f 18/17/5 15/18/5 5/19/5 11/20/5
f 17/21/6 2/22/6 12/23/6
f 16/10/7 17/21/7 12/23/7 6/11/7
f 13/24/5 18/17/5 11/20/5 1/25/5
f 28/12/8 6/11/8 12/14/8 29/13/8
f 26/4/2 4/3/2 10/6/2 30/5/2
f 21/26/5 24/27/5 18/17/5 13/24/5
f 22/28/9 23/29/9 17/21/9 16/10/9
f 23/29/10 19/30/10 14/31/10 17/21/10
f 24/27/5 20/32/5 15/18/5 18/17/5
f 33/33/11 22/28/11 16/10/11 31/9/11
f 25/34/12 2/35/12 14/36/12 32/37/12
f 27/8/11 8/7/11 22/28/11 33/33/11
f 9/38/5 7/39/5 20/32/5 24/27/5
f 10/40/13 4/41/13 19/30/13 23/29/13
f 8/7/14 10/40/14 23/29/14 22/28/14
f 3/42/5 9/38/5 24/27/5 21/26/5
f 32/37/1 14/36/1 19/2/1 34/1/1
f 13/43/1 32/37/1 34/1/1 21/44/1
f 2/22/15 17/21/15 14/31/15
f 7/39/11 27/8/11 33/33/11 20/32/11
f 1/45/16 25/34/16 32/37/16 13/43/16
f 20/32/11 33/33/11 31/9/11 15/18/11
f 3/46/17 26/4/17 30/5/17 9/47/17
f 28/12/18 29/13/18 39/13/18 35/12/18
f 5/19/19 28/12/19 35/12/19 36/19/19
f 15/18/20 31/9/20 28/12/20 5/19/20
f 9/47/17 30/5/17 27/8/17 7/39/17
f 21/44/1 34/1/1 26/4/1 3/46/1
f 36/19/21 35/12/21 39/13/21 37/48/21
f 37/48/22 39/13/22 40/16/22 38/49/22
f 1/25/23 11/20/23 37/20/23 38/25/23
f 25/34/24 1/45/24 38/45/24 40/34/24
f 11/20/25 5/19/25 36/19/25 37/20/25
f 29/13/26 25/16/26 40/16/26 39/13/26
f 41/45/27 42/35/27 44/3/27 43/46/27
f 49/47/28 50/6/28 68/50/28 48/7/28 47/39/28
f 47/39/29 48/7/29 46/11/29 45/19/29
f 49/38/5 47/39/5 45/19/5 51/20/5
f 46/11/30 42/15/30 41/49/30 51/48/30 45/19/30
f 48/7/31 68/51/31 46/11/31
f 43/42/5 49/38/5 51/20/5 41/25/5
f 43/46/28 44/3/28 50/6/28 49/47/28
f 52/45/32 53/35/32 57/52/32 67/53/32 55/3/32 54/46/32
f 60/47/33 61/6/33 59/7/33 58/39/33
f 59/7/34 61/40/34 64/54/34 66/55/34
f 60/38/35 58/39/35 56/19/35 62/20/35
f 56/19/36 65/56/36 64/57/36 63/58/36 53/15/36 52/49/36 62/48/36
f 58/39/37 59/7/37 66/59/37 65/60/37 56/19/37
f 54/42/38 60/38/38 62/20/38 52/25/38
f 61/40/39 55/41/39 67/61/39 63/62/39 64/54/39
f 54/46/33 55/3/33 61/6/33 60/47/33
f 64/54/40 65/56/40 66/59/40
f 63/62/41 67/61/41 57/63/41
f 57/63/42 53/22/42 63/62/42
f 46/11/43 68/51/43 50/40/43 42/22/43
f 42/22/44 50/40/44 44/41/44
