# Blender 3.6.17
# www.blender.org
mtllib rock4.mtl
o rock4
v -1.000000 0.000000 1.000000
v 1.000000 0.000000 -0.387380
v 0.204450 0.000000 1.000000
v 0.364157 0.000000 0.440193
v 0.770684 0.000000 0.019147
v -0.665901 0.000000 -1.000000
v -1.000000 0.000000 -0.700312
v 0.614740 0.830613 -0.659360
v -0.348920 0.798706 -0.612883
v -0.613325 0.771783 -0.351682
v -0.563224 0.700861 0.638449
v 0.184535 0.751848 0.243699
v 0.494245 0.786862 -0.109816
v 0.628943 0.810506 -0.378662
v -0.397775 0.000000 1.089527
v -0.231440 0.711846 0.700224
v 0.167050 0.000000 -1.072036
v 0.132910 0.814659 -0.710103
v -0.226053 1.311575 -0.386178
v -0.252348 1.279760 -0.432716
v 0.403360 1.333281 -0.420841
v 0.451107 1.302931 -0.466690
v 0.411409 1.322448 -0.261276
v 0.461516 1.288137 -0.261806
v -0.445330 1.260160 -0.242043
v -0.394943 1.295521 -0.219259
v -0.408751 1.208425 0.480655
v -0.361594 1.249169 0.440623
v 0.041806 1.262808 0.418676
v 0.137075 1.245214 0.192573
v 0.099234 1.281585 0.171234
v 0.363200 1.270787 -0.065537
v 0.322253 1.306798 -0.083329
v -0.166675 1.215734 0.546968
v -0.163610 1.252841 0.496265
v 0.099412 1.290655 -0.523953
v 0.098691 1.325993 -0.471876
v -0.672076 0.628015 0.758376
v -0.727526 0.562844 0.811249
v 0.723046 0.781992 -0.778685
v 0.192586 0.656685 0.716604
v 0.221422 0.593277 0.768790
v 0.744503 0.751601 -0.354277
v 0.795251 0.690202 -0.348545
v 0.326623 0.628155 0.323001
v 0.289580 0.690348 0.297486
v 0.630483 0.661877 -0.021811
v 0.589961 0.724412 -0.045628
v -0.730286 0.710927 -0.397119
v -0.782534 0.649442 -0.429344
v -0.398406 0.744786 -0.724762
v -0.429246 0.684960 -0.775423
v -0.252982 0.577564 0.879750
v -0.239550 0.643733 0.821669
v 0.171828 0.704046 -0.873905
v 0.161579 0.764777 -0.821158
v 0.106027 0.724790 0.581960
v 0.077496 0.722075 0.612904
v 0.119898 0.708809 0.629797
v 0.053292 1.223351 0.465644
v 0.081284 1.226073 0.432913
v 0.057985 1.244288 0.437213
v 0.968835 0.000000 -1.002695
v 1.000000 0.000000 -0.969143
v 0.773513 0.722100 -0.797834
v 0.741123 0.723209 -0.830477
v 0.748986 0.751425 -0.804853
v 0.097861 1.239628 -0.165538
v 0.136598 1.228945 -0.076847
v 0.132021 1.235071 -0.060726
v 0.282167 1.248482 -0.139159
v 0.291481 1.256238 -0.129006
v 0.198022 1.279473 -0.325245
v 0.204332 1.269827 -0.316239
v 0.243236 1.285443 -0.344601
v 0.239520 1.274639 -0.331291
v 0.167341 1.395238 -0.503676
v 0.176322 1.381035 -0.514672
v 0.280768 1.461028 -0.347888
v 0.301787 1.454434 -0.339679
v 0.238074 1.465211 -0.319038
v 0.246992 1.459542 -0.302523
v 0.091878 1.364488 -0.532170
v 0.093410 1.381094 -0.519096
v -0.101433 1.382628 -0.401192
v -0.083119 1.397923 -0.399607
v -0.010493 1.440017 -0.299689
v 0.068115 1.434309 -0.309408
v 0.067252 1.440868 -0.326461
v 0.176630 1.453034 -0.294748
v 0.174276 1.459334 -0.312001
v -0.079845 1.410966 -0.328374
v -0.065821 1.420454 -0.339586
v 0.259627 1.414403 -0.439021
v 0.244593 1.427311 -0.434525
v 0.311719 1.266875 -0.190406
v 0.299858 1.258050 -0.192844
v -0.021043 1.431056 -0.285049
v -0.007388 1.433205 -0.283313
v -0.012689 1.436702 -0.290577
v 0.251146 1.272518 -0.278732
v 0.064516 1.238607 -0.343998
v 0.365334 1.354771 -0.295302
v 0.339111 1.301520 -0.278833
v 0.206046 1.261344 -0.517548
v 0.188984 1.227044 -0.474694
v 0.092271 1.205412 -0.493849
v 0.098766 1.240258 -0.539782
v -0.111386 1.238636 -0.360427
v -0.146258 1.275749 -0.377309
v 0.068570 1.329592 -0.257047
v 0.067060 1.269828 -0.279820
v 0.236653 1.291204 -0.252415
v 0.206292 1.353304 -0.238416
v 0.295663 1.361422 -0.248206
v 0.315655 1.311884 -0.268646
v -0.083115 1.259678 -0.287521
v -0.113116 1.307041 -0.287286
v 0.297649 1.267357 -0.363634
v 0.305942 1.305520 -0.418400
v -0.026627 1.292202 -0.228226
v -0.029289 1.333714 -0.225368
v -0.034994 1.289308 -0.247276
v -0.042691 1.330511 -0.227008
v 0.135194 1.257548 -0.207917
v 0.144892 1.248851 -0.203845
v 0.166376 1.271054 -0.283519
v 0.175645 1.262174 -0.278407
v 0.091812 1.237899 -0.105823
v 0.103347 1.231731 -0.113472
v 0.293277 1.279859 -0.275027
v 0.283270 1.269087 -0.271331
v 0.085475 1.246987 -0.161247
v 0.089488 1.248800 -0.170663
v 0.091624 1.243593 -0.166175
v 0.203874 1.412300 -0.279201
v 0.175569 1.380621 -0.135682
v 0.250363 1.376616 -0.367199
v 0.235259 1.411044 -0.340760
v 0.337382 1.353187 -0.171339
v 0.307339 1.383057 -0.164656
v 0.283880 1.372896 -0.093816
v 0.311680 1.339716 -0.093314
v 0.117305 1.339974 -0.024647
v 0.110506 1.303599 -0.009379
v 0.113230 1.340888 -0.193663
v 0.133066 1.375459 -0.167401
v 0.179785 1.402971 -0.284640
v 0.152793 1.358072 -0.289607
v 0.192949 1.368885 -0.342589
v 0.218655 1.401597 -0.333081
v 0.080395 1.349143 -0.071594
v 0.063697 1.310967 -0.067884
v 0.275840 1.405131 -0.278083
v 0.309547 1.367969 -0.276797
v 0.061854 1.353182 -0.134543
v 0.054766 1.325288 -0.146355
v 0.070849 1.348824 -0.122471
v 0.050899 1.324262 -0.136805
v 0.597829 0.122118 0.327372
v 0.577842 0.140952 0.420789
v 0.584923 0.135283 0.436153
v 0.421922 0.131670 0.388268
v 0.414138 0.125346 0.400491
v 0.465976 0.083361 0.192322
v 0.462310 0.094006 0.201663
v 0.417554 0.080576 0.182213
v 0.424615 0.091673 0.193818
v 0.381692 0.113419 0.344835
v 0.393535 0.120974 0.339622
v 0.551731 0.105519 0.294052
v 0.543728 0.115273 0.299256
v 0.505622 0.091003 0.226720
v 0.498252 0.100954 0.232849
v 0.615357 0.126407 0.384642
v 0.603103 0.133202 0.378877
v 0.382427 0.094379 0.259358
v 0.393791 0.104362 0.260368
v 0.610176 0.113885 0.329771
v 0.604296 0.111959 0.321418
v 0.603489 0.117568 0.325856
v 0.458409 -0.045769 0.247689
v 0.516216 -0.009362 0.380863
v 0.398904 -0.010611 0.167680
v 0.415987 -0.044853 0.193140
v 0.353309 0.030953 0.374261
v 0.381574 -0.001165 0.377255
v 0.418946 0.010486 0.441594
v 0.394522 0.046066 0.444994
v 0.597805 0.031504 0.475989
v 0.610316 0.067847 0.487174
v 0.569245 0.021372 0.309659
v 0.552108 -0.009804 0.341483
v 0.481676 -0.038996 0.237216
v 0.510734 0.002905 0.224212
v 0.460409 -0.006923 0.180538
v 0.434462 -0.036585 0.196912
v 0.624148 0.016529 0.423717
v 0.644266 0.053146 0.421603
v 0.388813 -0.031954 0.261736
v 0.359083 0.008171 0.266733
v 0.629864 0.007510 0.358843
v 0.636771 0.033976 0.344022
v 0.623736 0.013303 0.372054
v 0.642471 0.035140 0.352587
vn -0.4862 0.8695 0.0869
vn 0.4468 0.8937 0.0414
vn 0.4312 0.8859 0.1709
vn 0.2849 0.2640 0.9215
vn 0.7170 0.1813 0.6731
vn -0.1064 0.8802 0.4625
vn 0.3219 0.8721 0.3684
vn 0.0755 0.2615 -0.9623
vn -0.3591 0.8929 -0.2715
vn -0.0000 -1.0000 -0.0000
vn -0.1164 0.3076 -0.9444
vn 0.0056 0.9207 -0.3903
vn 0.1684 0.3270 0.9299
vn 0.9624 0.0894 0.2566
vn -0.6238 0.4497 -0.6393
vn 0.8559 0.2191 0.4685
vn 0.1903 0.7804 0.5956
vn 0.1055 0.3877 -0.9157
vn -0.2157 0.3294 0.9192
vn 0.8701 0.1942 0.4530
vn 0.7379 0.1394 0.6603
vn -0.2167 0.3614 -0.9069
vn -0.0295 0.9972 0.0692
vn -0.9480 0.3103 0.0702
vn 0.0957 0.8758 0.4731
vn -0.9274 0.3729 0.0283
vn 0.3905 0.8792 0.2730
vn 0.9416 0.3358 -0.0236
vn 0.7681 0.6402 0.0077
vn -0.1077 0.9051 -0.4114
vn 0.0630 0.8430 -0.5343
vn 0.5608 0.8274 0.0298
vn -0.4229 0.8382 -0.3444
vn -0.6032 0.7928 0.0868
vn -0.1808 0.7937 0.5809
vn 0.4562 0.7530 0.4743
vn 0.5349 0.7751 0.3363
vn 0.6219 0.7563 0.2032
vn -0.1684 0.8345 -0.5246
vn -0.6707 0.3744 -0.6403
vn -0.1279 0.6783 0.7236
vn 0.0355 0.6628 -0.7480
vn 0.7958 0.5600 0.2304
vn 0.5799 0.5849 0.5670
vn 0.6901 0.6035 0.3995
vn -0.7526 0.6533 0.0818
vn -0.5389 0.6947 -0.4765
vn 0.1565 0.6508 0.7429
vn -0.1461 0.6583 -0.7384
vn -0.1398 0.3718 0.9177
vn 0.1923 0.9462 0.2603
vn 0.5768 0.6094 0.5440
vn 0.7181 0.2293 0.6571
vn 0.9653 0.1170 0.2334
vn 0.6581 0.3974 -0.6395
vn 0.6747 0.3646 -0.6417
vn 0.9559 0.2935 -0.0111
vn -0.2068 0.5241 0.8262
vn -0.4472 0.8723 0.1978
vn 0.2549 -0.6099 0.7504
vn 0.0099 -0.8751 0.4839
vn -0.6436 0.4669 0.6065
vn 0.2921 0.4306 0.8540
vn 0.1891 0.0705 -0.9794
vn -0.1178 0.9431 -0.3111
vn -0.9076 0.3866 0.1635
vn 0.1430 -0.9698 0.1977
vn 0.4538 0.7462 -0.4871
vn 0.2259 0.9535 0.1994
vn 0.0422 0.6214 -0.7823
vn -0.4180 0.5810 -0.6984
vn -0.6253 0.7722 -0.1126
vn -0.2057 0.9099 0.3603
vn -0.0480 0.9363 0.3479
vn 0.1116 0.9271 0.3578
vn 0.3273 0.6704 -0.6659
vn -0.0223 -0.9714 0.2366
vn -0.1974 0.8192 0.5385
vn -0.8753 -0.2665 -0.4036
vn 0.0159 -0.8876 0.4604
vn -0.5533 0.0322 -0.8324
vn 0.8250 0.2819 -0.4898
vn 0.6462 0.1570 -0.7469
vn 0.4882 0.5954 0.6381
vn -0.1942 0.4380 0.8777
vn 0.0490 0.5022 0.8634
vn 0.8464 -0.4872 -0.2151
vn 0.5143 -0.0642 0.8552
vn 0.2763 -0.7924 -0.5438
vn -0.4744 -0.6776 -0.5620
vn -0.7517 -0.4904 0.4409
vn -0.0965 -0.3084 0.9463
vn 0.1847 -0.2127 0.9595
vn 0.6322 -0.6917 -0.3492
vn -0.6181 -0.2825 0.7336
vn 0.3622 -0.2248 0.9046
vn -0.4884 -0.3887 0.7813
vn 0.3054 -0.9256 0.2236
vn -0.5200 -0.8507 -0.0773
vn -0.4145 0.8642 -0.2854
vn -0.2818 0.9500 0.1346
vn -0.9108 -0.4075 0.0668
vn -0.6252 -0.0336 -0.7798
vn 0.9133 -0.3256 0.2446
vn 0.0707 -0.9861 -0.1502
vn -0.6649 -0.5510 0.5042
vn 0.0416 0.9809 0.1899
vn 0.5445 -0.7048 -0.4548
vn -0.1808 -0.7355 -0.6530
vn 0.5950 -0.8018 0.0553
vn 0.2894 -0.8669 0.4059
vn -0.3380 -0.9097 0.2414
vn -0.5357 -0.7649 -0.3576
vn -0.4465 -0.7488 -0.4899
vn -0.3701 -0.6927 -0.6190
vn 0.6392 -0.7290 -0.2447
vn -0.0772 0.9487 0.3067
vn -0.6688 -0.6234 -0.4051
vn -0.2572 0.9554 0.1450
vn 0.4069 -0.4513 0.7942
vn 0.8045 -0.1818 -0.5654
vn 0.9446 -0.2014 -0.2594
vn -0.3637 -0.1972 -0.9104
vn -0.9002 -0.1686 -0.4014
vn -0.7699 -0.1633 -0.6169
vn 0.6902 0.6083 -0.3919
vn -0.4421 0.4766 -0.7598
vn 0.7108 0.6195 0.3331
vn 0.3181 0.2999 0.8994
vn -0.6964 0.3752 0.6117
vn -0.8044 0.5561 -0.2090
vn -0.6817 0.5524 -0.4798
vn 0.7192 0.6903 -0.0787
vn -0.9015 0.3185 0.2931
vn -0.5411 0.5953 -0.5940
vn -0.8592 0.4662 0.2107
vn 0.0986 0.9947 0.0300
vn 0.8000 0.1633 -0.5774
vn 0.5622 0.7940 -0.2315
vn 0.2810 -0.9124 -0.2975
vn 0.2250 -0.9636 0.1447
vn 0.9364 0.3248 -0.1328
vn 0.4643 -0.0650 -0.8833
vn -0.8201 0.4207 0.3879
vn -0.0186 0.9792 -0.2019
vn 0.7916 0.5131 0.3320
vn -0.0831 -0.9616 0.2614
vn -0.5632 0.7271 -0.3925
vn 0.1106 0.6805 -0.7243
vn -0.5068 0.8550 0.1101
vn -0.1354 0.9099 0.3921
vn 0.4502 0.8860 0.1107
vn 0.5168 0.6926 -0.5032
vn 0.4028 0.6778 -0.6151
vn 0.2988 0.6223 -0.7235
vn -0.6136 0.7710 -0.1706
vn 0.0581 -0.9344 0.3515
vn 0.6265 0.5371 -0.5649
vn 0.2025 -0.9661 0.1598
vn -0.2091 0.5278 0.8233
vn -0.8808 0.2253 -0.4163
vn -0.9575 0.2736 -0.0916
vn 0.1967 0.1150 -0.9737
vn 0.8169 0.0637 -0.5732
vn 0.6477 0.0592 -0.7596
vn -0.7993 -0.5618 -0.2132
vn 0.2481 -0.5544 -0.7944
vn -0.6811 -0.5331 0.5019
vn -0.1625 -0.2219 0.9614
vn 0.7685 -0.4052 0.4952
vn 0.7019 -0.6380 -0.3168
vn 0.5301 -0.6371 -0.5595
vn -0.7741 -0.6243 0.1048
vn 0.9124 -0.3844 0.1408
vn 0.3672 -0.6729 -0.6422
vn 0.8433 -0.5317 0.0781
vn -0.1707 -0.9784 0.1163
vt 0.868931 0.556526
vt 0.868972 0.743972
vt 0.850414 0.725414
vt 0.850414 0.564792
vt 0.631124 0.574969
vt 0.631121 0.506121
vt 0.649586 0.524586
vt 0.649586 0.570121
vt 0.729001 0.743961
vt 0.709913 0.676893
vt 0.726436 0.667369
vt 0.741878 0.721496
vt 0.740029 0.729346
vt 0.796705 0.725414
vt 0.746695 0.725414
vt 0.747942 0.725414
vt 0.295520 0.680024
vt 0.346336 0.627393
vt 0.635374 0.627393
vt 0.678864 0.680024
vt 0.868972 0.743972
vt 0.798936 0.743598
vt 0.709913 0.676893
vt 0.658602 0.623712
vt 0.673534 0.612577
vt 0.375000 0.395881
vt 0.610800 0.404486
vt 0.611381 0.495079
vt 0.375000 0.496104
vt 0.812660 0.506094
vt 0.805582 0.524586
vt 0.125000 0.537461
vt 0.166762 0.500000
vt 0.270881 0.500000
vt 0.371104 0.500000
vt 0.375000 0.503857
vt 0.375000 0.576578
vt 0.275556 0.750000
vt 0.200278 0.750000
vt 0.125000 0.750000
vt 0.375000 0.291762
vt 0.610538 0.308953
vt 0.610800 0.404486
vt 0.722035 0.506607
vt 0.727584 0.524586
vt 0.375000 0.849444
vt 0.608519 0.849444
vt 0.607982 0.924722
vt 0.375000 0.924722
vt 0.678864 0.680024
vt 0.601963 0.842888
vt 0.375000 0.212539
vt 0.609972 0.197167
vt 0.789540 0.487954
vt 0.610705 0.576578
vt 0.635374 0.627393
vt 0.749873 0.717321
vt 0.796850 0.720333
vt 0.747942 0.725414
vt 0.746581 0.721196
vt 0.649586 0.524586
vt 0.658159 0.532558
vt 0.727462 0.530379
vt 0.801628 0.533248
vt 0.841895 0.568631
vt 0.841818 0.717679
vt 0.734041 0.662858
vt 0.680435 0.607731
vt 0.658127 0.568289
vt 0.850414 0.564792
vt 0.798936 0.743598
vt 0.729001 0.743961
vt 0.746695 0.725414
vt 0.375000 0.000000
vt 0.607829 0.000000
vt 0.609972 0.197167
vt 0.658602 0.623712
vt 0.631124 0.574969
vt 0.610705 0.576578
vt 0.611368 0.504836
vt 0.620688 0.502881
vt 0.722035 0.506607
vt 0.812660 0.506094
vt 0.805582 0.524586
vt 0.741465 0.720048
vt 0.875000 0.750000
vt 0.801268 0.750000
vt 0.625000 0.405004
vt 0.625000 0.494787
vt 0.617807 0.497546
vt 0.611381 0.495079
vt 0.704480 0.680024
vt 0.630249 0.838255
vt 0.875000 0.553816
vt 0.815435 0.500397
vt 0.799722 0.750000
vt 0.725439 0.750000
vt 0.625000 0.311672
vt 0.625000 0.402348
vt 0.607982 0.924722
vt 0.607829 1.000000
vt 0.375000 1.000000
vt 0.743613 0.727576
vt 0.740832 0.725414
vt 0.614638 0.501002
vt 0.747041 0.725414
vt 0.741763 0.721091
vt 0.689230 0.587025
vt 0.663902 0.547134
vt 0.663675 0.560171
vt 0.682497 0.597987
vt 0.768405 0.632644
vt 0.743122 0.653563
vt 0.747041 0.725414
vt 0.741763 0.721091
vt 0.726436 0.667369
vt 0.850414 0.725415
vt 0.793615 0.550121
vt 0.713918 0.546833
vt 0.830290 0.581442
vt 0.790300 0.704416
vt 0.831247 0.702576
vt 0.743122 0.653563
vt 0.760639 0.705662
vt 0.757641 0.704379
vt 0.663903 0.547134
s 0
usemtl Rock
f 49/1/1 38/2/1 11/3/1 10/4/1
f 43/5/2 40/6/2 8/7/2 14/8/2
f 41/9/3 46/10/3 12/11/3 57/12/3 59/13/3
f 16/14/4 58/15/4 60/16/4 34/14/4
f 4/17/5 5/18/5 47/19/5 45/20/5
f 38/21/6 54/22/6 16/14/6 11/3/6
f 46/23/7 48/24/7 13/25/7 12/11/7
f 17/26/8 55/27/8 66/28/8 63/29/8
f 51/30/9 49/1/9 10/4/9 9/31/9
f 7/32/10 6/33/10 17/34/10 63/35/10 64/36/10 2/37/10 5/18/10 4/17/10 3/38/10 15/39/10 1/40/10
f 6/41/11 52/42/11 55/43/11 17/26/11
f 40/6/12 56/44/12 18/45/12 8/7/12
f 3/46/13 42/47/13 53/48/13 15/49/13
f 4/17/14 45/50/14 42/51/14 3/38/14
f 7/52/15 50/53/15 52/54/15 6/41/15
f 5/18/16 2/37/16 44/55/16 47/56/16
f 29/57/17 35/58/17 34/14/17 60/59/17 62/60/17
f 8/7/18 18/45/18 36/45/18 22/61/18
f 11/3/19 16/14/19 34/14/19 27/3/19
f 13/25/20 14/8/20 24/8/20 32/25/20
f 12/11/21 13/25/21 32/25/21 30/11/21
f 18/45/22 9/31/22 20/31/22 36/45/22
f 21/62/23 37/63/23 19/64/23 26/65/23 28/66/23 35/58/23 29/57/23 31/67/23 33/68/23 23/69/23
f 10/4/24 11/3/24 27/3/24 25/70/24
f 54/71/25 41/72/25 59/13/25 58/73/25 16/14/25
f 1/74/26 39/75/26 50/76/26 7/52/26
f 48/77/27 43/78/27 14/8/27 13/25/27
f 14/8/28 8/7/28 22/61/28 24/8/28
f 40/6/29 43/5/29 44/79/29 65/80/29 67/81/29
f 56/82/30 51/83/30 9/31/30 18/45/30
f 37/63/31 21/62/31 22/61/31 36/45/31
f 21/62/32 23/69/32 24/8/32 22/61/32
f 20/84/33 25/4/33 26/65/33 19/64/33
f 28/66/34 26/65/34 25/70/34 27/3/34
f 35/58/35 28/66/35 27/3/35 34/14/35
f 30/11/36 32/25/36 33/68/36 31/67/36
f 32/25/37 24/8/37 23/69/37 33/68/37
f 62/60/38 61/85/38 30/11/38 31/67/38 29/57/38
f 19/64/39 37/63/39 36/45/39 20/31/39
f 9/31/40 10/4/40 25/4/40 20/84/40
f 54/22/41 38/21/41 39/86/41 53/87/41
f 56/88/42 40/89/42 67/90/42 66/91/42 55/27/42
f 42/51/43 45/50/43 46/92/43 41/93/43
f 45/20/44 47/19/44 48/24/44 46/23/44
f 47/56/45 44/55/45 43/78/45 48/77/45
f 38/2/46 49/1/46 50/94/46 39/86/46
f 52/95/47 50/94/47 49/1/47 51/30/47
f 41/72/48 54/71/48 53/96/48 42/97/48
f 51/98/49 56/99/49 55/43/49 52/42/49
f 15/49/50 53/100/50 39/101/50 1/102/50
f 57/12/51 58/103/51 59/13/51
f 60/16/52 61/104/52 62/60/52
f 60/16/53 58/15/53 57/12/53 61/85/53
f 57/12/54 12/11/54 30/11/54 61/85/54
f 65/80/55 66/105/55 67/81/55
f 65/80/56 64/36/56 63/29/56 66/28/56
f 64/36/57 65/80/57 44/79/57 2/37/57
f 98/16/58 124/106/58 122/107/58 99/85/58
f 87/57/59 93/58/59 92/14/59 98/59/59 100/60/59
f 101/108/60 104/109/60 116/110/60 113/111/60
f 102/112/61 101/108/61 113/111/61 112/113/61
f 118/14/62 124/114/62 98/16/62 92/14/62
f 122/115/63 111/116/63 88/11/63 99/85/63
f 105/31/64 108/4/64 83/4/64 78/84/64
f 79/62/65 95/63/65 77/64/65 84/65/65 86/66/65 93/58/65 87/57/65 89/67/65 91/68/65 81/69/65
f 110/117/66 118/14/66 92/14/66 85/3/66
f 106/118/67 119/119/67 101/108/67 102/112/67 107/120/67
f 95/63/68 79/62/68 80/61/68 94/45/68
f 79/62/69 81/69/69 82/8/69 80/61/69
f 78/84/70 83/4/70 84/65/70 77/64/70
f 86/66/71 84/65/71 83/70/71 85/3/71
f 93/58/72 86/66/72 85/3/72 92/14/72
f 88/11/73 90/25/73 91/68/73 89/67/73
f 90/25/74 82/8/74 81/69/74 91/68/74
f 100/60/75 99/85/75 88/11/75 89/67/75 87/57/75
f 77/64/76 95/63/76 94/45/76 78/31/76
f 107/120/77 102/112/77 117/121/77 109/122/77
f 98/16/78 99/104/78 100/60/78
f 133/16/79 159/106/79 157/107/79 134/85/79
f 117/121/80 102/112/80 112/123/80 121/124/80 123/125/80
f 108/4/81 110/3/81 85/3/81 83/70/81
f 103/7/82 120/45/82 94/45/82 80/61/82
f 120/45/83 105/31/83 78/31/83 94/45/83
f 115/8/84 103/61/84 80/61/84 82/8/84
f 111/11/85 114/25/85 90/25/85 88/11/85
f 114/25/86 115/8/86 82/8/86 90/25/86
f 120/45/87 103/7/87 104/126/87 119/119/87
f 103/61/88 115/8/88 116/110/88 104/109/88
f 106/118/89 107/120/89 108/4/89 105/31/89
f 110/3/90 108/4/90 107/120/90 109/122/90
f 118/14/91 110/117/91 109/122/91 117/121/91
f 112/113/92 113/111/92 114/25/92 111/11/92
f 113/111/93 116/110/93 115/8/93 114/25/93
f 105/31/94 120/45/94 119/119/94 106/118/94
f 122/107/95 124/106/95 123/125/95 121/124/95
f 121/124/96 112/123/96 111/116/96 122/115/96
f 124/114/97 118/14/97 117/121/97 123/125/97
f 119/119/98 104/126/98 101/108/98
f 68/57/99 130/58/99 129/14/99 133/59/99 135/60/99
f 136/108/100 139/109/100 151/110/100 148/111/100
f 137/112/101 136/108/101 148/111/101 147/113/101
f 153/14/102 159/114/102 133/16/102 129/14/102
f 157/115/103 146/116/103 125/11/103 134/85/103
f 140/31/104 143/4/104 72/4/104 96/84/104
f 76/62/105 132/63/105 97/64/105 71/65/105 69/66/105 130/58/105 68/57/105 126/67/105 128/68/105 74/69/105
f 145/117/106 153/14/106 129/14/106 70/3/106
f 141/118/107 154/119/107 136/108/107 137/112/107 142/120/107
f 132/63/108 76/62/108 75/61/108 131/45/108
f 76/62/109 74/69/109 73/8/109 75/61/109
f 96/84/110 72/4/110 71/65/110 97/64/110
f 69/66/111 71/65/111 72/70/111 70/3/111
f 130/58/112 69/66/112 70/3/112 129/14/112
f 125/11/113 127/25/113 128/68/113 126/67/113
f 127/25/114 73/8/114 74/69/114 128/68/114
f 135/60/115 134/85/115 125/11/115 126/67/115 68/57/115
f 97/64/116 132/63/116 131/45/116 96/31/116
f 142/120/117 137/112/117 152/121/117 144/122/117
f 133/16/118 134/104/118 135/60/118
f 152/121/119 137/112/119 147/123/119 156/124/119 158/125/119
f 143/4/120 145/3/120 70/3/120 72/70/120
f 138/7/121 155/45/121 131/45/121 75/61/121
f 155/45/122 140/31/122 96/31/122 131/45/122
f 150/8/123 138/61/123 75/61/123 73/8/123
f 146/11/124 149/25/124 127/25/124 125/11/124
f 149/25/125 150/8/125 73/8/125 127/25/125
f 155/45/126 138/7/126 139/126/126 154/119/126
f 138/61/127 150/8/127 151/110/127 139/109/127
f 141/118/128 142/120/128 143/4/128 140/31/128
f 145/3/129 143/4/129 142/120/129 144/122/129
f 153/14/130 145/117/130 144/122/130 152/121/130
f 147/113/131 148/111/131 149/25/131 146/11/131
f 148/111/132 151/110/132 150/8/132 149/25/132
f 140/31/133 155/45/133 154/119/133 141/118/133
f 157/107/134 159/106/134 158/125/134 156/124/134
f 156/124/135 147/123/135 146/116/135 157/115/135
f 159/114/136 153/14/136 152/121/136 158/125/136
f 154/119/137 139/126/137 136/108/137
f 179/16/138 205/106/138 203/107/138 180/85/138
f 160/57/139 176/58/139 175/14/139 179/59/139 181/60/139
f 182/108/140 185/109/140 197/110/140 194/111/140
f 183/112/141 182/108/141 194/111/141 193/113/141
f 199/14/142 205/114/142 179/16/142 175/14/142
f 203/115/143 192/116/143 171/11/143 180/85/143
f 186/31/144 189/4/144 164/4/144 169/84/144
f 168/62/145 178/63/145 170/64/145 163/65/145 161/66/145 176/58/145 160/57/145 172/67/145 174/68/145 166/69/145
f 191/117/146 199/14/146 175/14/146 162/3/146
f 187/118/147 200/119/147 182/108/147 183/112/147 188/120/147
f 178/63/148 168/62/148 167/61/148 177/45/148
f 168/62/149 166/69/149 165/8/149 167/61/149
f 169/84/150 164/4/150 163/65/150 170/64/150
f 161/66/151 163/65/151 164/70/151 162/3/151
f 176/58/152 161/66/152 162/3/152 175/14/152
f 171/11/153 173/25/153 174/68/153 172/67/153
f 173/25/154 165/8/154 166/69/154 174/68/154
f 181/60/155 180/85/155 171/11/155 172/67/155 160/57/155
f 170/64/156 178/63/156 177/45/156 169/31/156
f 188/120/157 183/112/157 198/121/157 190/122/157
f 179/16/158 180/104/158 181/60/158
f 198/121/159 183/112/159 193/123/159 202/124/159 204/125/159
f 189/4/160 191/3/160 162/3/160 164/70/160
f 184/7/161 201/45/161 177/45/161 167/61/161
f 201/45/162 186/31/162 169/31/162 177/45/162
f 196/8/163 184/61/163 167/61/163 165/8/163
f 192/11/164 195/25/164 173/25/164 171/11/164
f 195/25/165 196/8/165 165/8/165 173/25/165
f 201/45/166 184/7/166 185/126/166 200/119/166
f 184/61/167 196/8/167 197/110/167 185/109/167
f 187/118/168 188/120/168 189/4/168 186/31/168
f 191/3/169 189/4/169 188/120/169 190/122/169
f 199/14/170 191/117/170 190/122/170 198/121/170
f 193/113/171 194/111/171 195/25/171 192/11/171
f 194/111/172 197/110/172 196/8/172 195/25/172
f 186/31/173 201/45/173 200/119/173 187/118/173
f 203/107/174 205/106/174 204/125/174 202/124/174
f 202/124/175 193/123/175 192/116/175 203/115/175
f 205/114/176 199/14/176 198/121/176 204/125/176
f 200/119/177 185/126/177 182/108/177
